<svg width="25" height="25" viewBox="0 0 25 25" fill="none" xmlns="http://www.w3.org/2000/svg">
<path d="M13.3578 11.5V8.5H11.3578V11.5H8.35785V13.5H11.3578V16.5H13.3578V13.5H16.3578V11.5H13.3578Z" fill="#15181B"/>
<path d="M21.3578 4.5V3.5H20.3578V2.5H4.35785V3.5H3.35785V4.5H2.35785V20.5H3.35785V21.5H4.35785V22.5H20.3578V21.5H21.3578V20.5H22.3578V4.5H21.3578ZM20.3578 18.5H19.3578V19.5H18.3578V20.5H6.35785V19.5H5.35785V18.5H4.35785V6.5H5.35785V5.5H6.35785V4.5H18.3578V5.5H19.3578V6.5H20.3578V18.5Z" fill="#15181B"/>
</svg>
