<svg width="25" height="25" viewBox="0 0 25 25" fill="none" xmlns="http://www.w3.org/2000/svg">
<path d="M20.3578 5.5V3.5H18.3578V5.5H16.3578V7.5H18.3578V9.5H20.3578V7.5H22.3578V5.5H20.3578Z" fill="#15181B"/>
<path d="M20.3578 11.5V19.5H19.3578V20.5H5.35785V19.5H4.35785V11.5H5.35785V12.5H7.35785V13.5H9.35785V14.5H10.3578V15.5H14.3578V14.5H15.3578V13.5H17.3578V11.5H13.3578V12.5H11.3578V11.5H9.35785V10.5H7.35785V9.5H5.35785V8.5H4.35785V7.5H5.35785V6.5H13.3578V4.5H3.35785V5.5H2.35785V21.5H3.35785V22.5H21.3578V21.5H22.3578V11.5H20.3578Z" fill="#15181B"/>
</svg>
