<svg width="25" height="25" viewBox="0 0 25 25" fill="none" xmlns="http://www.w3.org/2000/svg">
<path d="M18.3578 10.5V18.5H17.3578V17.5H16.3578V16.5H15.3578V15.5H14.3578V14.5H10.3578V15.5H9.35785V16.5H8.35785V17.5H7.35785V18.5H6.35785V6.5H7.35785V5.5H13.3578V3.5H5.35785V4.5H4.35785V21.5H8.35785V20.5H9.35785V19.5H10.3578V18.5H11.3578V17.5H12.3578H13.3578V18.5H14.3578V19.5H15.3578V20.5H16.3578V21.5H20.3578V10.5H18.3578Z" fill="#15181B"/>
<path d="M20.3578 4.5V2.5H18.3578V4.5H16.3578V6.5H18.3578V8.5H20.3578V6.5H22.3578V4.5H20.3578Z" fill="#15181B"/>
</svg>
