<svg width="25" height="25" viewBox="0 0 25 25" fill="none" xmlns="http://www.w3.org/2000/svg">
<path d="M6.35785 12.5H7.35785V13.5H13.3578V12.5H14.3578V11.5H15.3578V5.5H14.3578V4.5H13.3578V3.5H7.35785V4.5H6.35785V5.5H5.35785V11.5H6.35785V12.5ZM7.35785 7.5H8.35785V6.5H9.35785V5.5H11.3578V6.5H12.3578V7.5H13.3578V9.5H12.3578V10.5H11.3578V11.5H9.35785V10.5H8.35785V9.5H7.35785V7.5Z" fill="#15181B"/>
<path d="M17.3578 15.5H16.3578V14.5H4.35785V15.5H3.35785V16.5H2.35785V21.5H4.35785V18.5H5.35785V17.5H6.35785V16.5H14.3578V17.5H15.3578V18.5H16.3578V19.5V20.5V21.5H18.3578V16.5H17.3578V15.5Z" fill="#15181B"/>
<path d="M20.3578 7.5V6.5V5.5H18.3578V7.5H16.3578V9.5H18.3578V11.5H20.3578V9.5H22.3578V7.5H20.3578Z" fill="#15181B"/>
</svg>
