<svg width="7" height="5" viewBox="0 0 7 5" fill="none" xmlns="http://www.w3.org/2000/svg">
<path d="M0.753948 0.422729H1.51575V0.788395H1.89665V1.15406H2.27755V1.51973H2.65845V1.88539H3.03936V2.25106H3.80116V1.88539H4.18206V1.51973H4.56296V1.15406H4.94386V0.788395H5.32476V0.422729H6.08657V0.788395H6.46747V1.51973H6.08657V1.88539H5.70566V2.25106H5.32476V2.61672H4.94386V2.98239H4.56296V3.34805H4.18206V3.71372H3.80116V4.07938H3.03936V3.71372H2.65845V3.34805H2.27755V2.98239H1.89665V2.61672H1.51575V2.25106H1.13485V1.88539H0.753948V1.51973H0.373047V0.788395H0.753948V0.422729Z" fill="currentColor"/>
</svg>
