<svg width="44" height="44" viewBox="0 0 44 44" fill="none" xmlns="http://www.w3.org/2000/svg">
<path d="M14.2804 9.90641C15.2711 9.88802 16.2604 9.98959 17.2268 10.2089C18.0404 10.3866 18.8129 10.7171 19.5031 11.183C20.1406 11.6463 20.645 12.2691 20.9657 12.9889C21.3343 13.8741 21.5121 14.8271 21.4876 15.7856C21.5294 16.8381 21.2606 17.8796 20.7147 18.7804C20.1403 19.6312 19.3464 20.3106 18.4171 20.7467C19.6782 21.0867 20.7766 21.8654 21.5148 22.9429C22.2234 24.0845 22.5796 25.4098 22.5388 26.7529C22.5621 27.8238 22.3407 28.8858 21.8914 29.8581C21.4761 30.7063 20.8679 31.4455 20.1157 32.0165C19.3412 32.5812 18.4697 32.999 17.5444 33.2492C16.5849 33.5147 15.5936 33.648 14.598 33.6455H3.66699V9.90641H14.2804ZM13.6497 19.5079C14.4281 19.54 15.1944 19.307 15.8232 18.8469C16.1243 18.5789 16.3585 18.2441 16.5072 17.8693C16.6558 17.4945 16.7148 17.0902 16.6792 16.6886C16.6994 16.2195 16.606 15.7525 16.407 15.3273C16.2382 14.9887 15.9757 14.7058 15.6507 14.5121C15.3216 14.2988 14.9518 14.1561 14.5647 14.0931C14.1448 14.0117 13.7174 13.9747 13.2897 13.9827H8.619V19.5291H13.6497V19.5079ZM13.9219 29.6146C14.3927 29.621 14.8625 29.5702 15.321 29.4634C15.74 29.3708 16.1374 29.1988 16.4917 28.9567C16.8388 28.7146 17.1192 28.389 17.3069 28.0098C17.5247 27.5264 17.6247 26.9982 17.5989 26.4686C17.6461 25.9859 17.5821 25.4989 17.412 25.0448C17.2418 24.5907 16.97 24.1816 16.6172 23.8489C15.8696 23.2982 14.9534 23.0254 14.0263 23.0775H8.619V29.6146H13.9219Z" fill="#323538"/>
<path d="M29.5916 29.5269C29.9803 29.8871 30.4382 30.1646 30.9374 30.3424C31.4366 30.5203 31.9668 30.5948 32.4957 30.5614C33.3341 30.5826 34.1563 30.3275 34.8356 29.8354C35.3881 29.4761 35.8066 28.9444 36.0259 28.3229H39.9751C39.5543 30.0923 38.5268 31.6583 37.0711 32.7485C35.6746 33.6755 34.0242 34.1449 32.349 34.0917C31.1533 34.1073 29.9667 33.8826 28.8596 33.4307C27.8581 33.013 26.9599 32.3817 26.2278 31.5809C25.4984 30.7417 24.9381 29.7695 24.5776 28.7177C24.173 27.542 23.975 26.3051 23.9923 25.0619C23.9849 23.8395 24.1896 22.6251 24.5973 21.4727C25.145 19.8514 26.1922 18.4453 27.5886 17.4562C28.9851 16.4671 30.659 15.9458 32.3701 15.9671C33.6335 15.9407 34.8827 16.2363 36.0002 16.8262C37.0103 17.3801 37.8817 18.1558 38.5488 19.095C39.2312 20.0805 39.7203 21.1865 39.9902 22.3545C40.2862 23.6086 40.3918 24.9001 40.3033 26.1857H28.5404C28.4451 27.3935 28.8219 28.5912 29.5916 29.5269ZM34.7524 20.4986C34.4232 20.1694 34.0273 19.9145 33.5913 19.7512C33.1553 19.5878 32.6894 19.5198 32.2249 19.5518C31.6087 19.5283 30.997 19.6648 30.4492 19.948C30.015 20.1871 29.6317 20.5087 29.3209 20.8949C29.0454 21.2569 28.8402 21.6673 28.7159 22.1049C28.6038 22.4698 28.5338 22.8464 28.5071 23.2272H35.793C35.7295 22.2345 35.3679 21.284 34.7554 20.5001L34.7524 20.4986Z" fill="#323538"/>
<path d="M36.697 11.4915H27.5674V13.8253H36.697V11.4915Z" fill="#323538"/>
</svg>
