<svg width="24" height="25" viewBox="0 0 24 25" fill="none" xmlns="http://www.w3.org/2000/svg">
<path d="M6 12.5H7V13.5H13V12.5H14V11.5H15V5.5H14V4.5H13V3.5H7V4.5H6V5.5H5V11.5H6V12.5ZM7 7.5H8V6.5H9V5.5H11V6.5H12V7.5H13V9.5H12V10.5H11V11.5H9V10.5H8V9.5H7V7.5Z" fill="currentColor"/>
<path d="M17 15.5H16V14.5H4V15.5H3V16.5H2V21.5H4V18.5H5V17.5H6V16.5H14V17.5H15V18.5H16V21.5H18V16.5H17V15.5Z" fill="currentColor"/>
<path d="M20 5.5V6.5H19V5.5H17V7.5H18V8.5H17V10.5H19V9.5H20V10.5H22V8.5H21V7.5H22V5.5H20Z" fill="currentColor"/>
</svg>
