<svg width="24" height="25" viewBox="0 0 24 25" fill="none" xmlns="http://www.w3.org/2000/svg">
<path d="M9 11.5H7V13.5H9V11.5Z" fill="currentColor"/>
<path d="M13 11.5H11V13.5H13V11.5Z" fill="currentColor"/>
<path d="M17 11.5H15V13.5H17V11.5Z" fill="currentColor"/>
<path d="M9 15.5H7V17.5H9V15.5Z" fill="currentColor"/>
<path d="M13 15.5H11V17.5H13V15.5Z" fill="currentColor"/>
<path d="M17 15.5H15V17.5H17V15.5Z" fill="currentColor"/>
<path d="M21 5.5V4.5H17V3.5H15V4.5H9V3.5H7V4.5H3V5.5H2V21.5H3V22.5H21V21.5H22V5.5H21ZM20 19.5H19V20.5H5V19.5H4V7.5H5V6.5H7V8.5H9V6.5H15V8.5H17V7.5V6.5H19V7.5H20V19.5Z" fill="currentColor"/>
</svg>
