<svg width="24" height="25" viewBox="0 0 24 25" fill="none" xmlns="http://www.w3.org/2000/svg">
<path d="M21 14.5V13.5H15V12.5H14V11.5H13V10.5H12V9.5H11V3.5H10V2.5H4V3.5H3V4.5H2V11.5H3V12.5H4V13.5H5V14.5H6V15.5H7V16.5H8V17.5H9V18.5H10V19.5H11V20.5H12V21.5H13V22.5H20V21.5H21V20.5H22V14.5H21ZM20 18.5H19V19.5H18V20.5H15V19.5H14V18.5H13V17.5H12V16.5H11V15.5H10V14.5H9V13.5H8V12.5H7V11.5H6V10.5H5V9.5H4V6.5H5V5.5H6V4.5H8V5.5H9V7.5H8V10.5H9V11.5H10V12.5H11V13.5H12V14.5H13V15.5H14V16.5H17V15.5H19V16.5H20V18.5Z" fill="#15181B"/>
</svg>
