<svg width="18" height="18" viewBox="0 0 18 18" fill="none" xmlns="http://www.w3.org/2000/svg">
<path d="M17.25 3.75V4.5H16.5V5.25H15.75V6H15V6.75H14.25V7.5H13.5V8.25H12.75V9H12V9.75H11.25V10.5H10.5V11.25H9.75V12H9V12.75H8.25V13.5H7.5V14.25H6V13.5H5.25V12.75H4.5V12H3.75V11.25H3V10.5H2.25V9.75H1.5V9H0.75V8.25H1.5V7.5H2.25V6.75H3V7.5H3.75V8.25H4.5V9H5.25V9.75H6V10.5H7.5V9.75H8.25V9H9V8.25H9.75V7.5H10.5V6.75H11.25V6H12V5.25H12.75V4.5H13.5V3.75H14.25V3H15V2.25H15.75V3H16.5V3.75H17.25Z" fill="#FAFCFE"/>
</svg>
