<svg width="25" height="24" viewBox="0 0 25 24" fill="none" xmlns="http://www.w3.org/2000/svg">
<path d="M23.2857 21.1669L21.4523 23.0002L20.5357 22.0836L19.619 23.0002L12.2857 15.6669L4.95234 23.0002L4.03568 22.0836L3.11901 23.0002L1.28568 21.1669L2.20234 20.2502L1.28568 19.3336L8.61901 12.0002L1.28568 4.66691L2.20234 3.75024L1.28568 2.83358L3.11901 1.00024L4.03568 1.91691L4.95234 1.00024L12.2857 8.33358L19.619 1.00024L20.5357 1.91691L21.4523 1.00024L23.2857 2.83358L22.369 3.75024L23.2857 4.66691L15.9523 12.0002L23.2857 19.3336L22.369 20.2502L23.2857 21.1669Z" fill="currentColor"/>
</svg>
