<svg width="60" height="44" viewBox="0 0 60 44" fill="none" xmlns="http://www.w3.org/2000/svg">
<path d="M10.3785 43.3333V39.3959H14.53V43.3333H10.3785ZM6.22712 39.3959L6.22712 23.646H10.3785V39.3959H6.22712ZM2.07571 23.646V19.7085H6.22712L6.22712 23.646H2.07571ZM6.22712 19.7085L6.22712 3.93747H10.3785L10.3785 19.7085H6.22712ZM10.3785 3.93747V0L14.53 0V3.93747L10.3785 3.93747Z" fill="#15181B"/>
<path d="M24.9085 39.3959V35.4584H37.3627V39.3959H24.9085ZM37.3627 35.4584V31.5209H41.5365V35.4584H37.3627ZM20.7571 35.4584L20.7571 19.7085H24.9085L24.9085 35.4584H20.7571ZM37.3627 23.646V19.7085H41.5365V23.646H37.3627ZM24.9085 19.7085V15.7499H37.3627V19.7085L24.9085 19.7085Z" fill="currentColor"/>
<path d="M47.5458 43.3333V39.3959H51.6972V43.3333H47.5458ZM51.6972 39.3959V23.646H55.8486V39.3959H51.6972ZM55.8486 23.646V19.7085H60V23.646H55.8486ZM51.6972 19.7085V3.93747L55.8486 3.93747V19.7085H51.6972ZM47.5458 3.93747V0L51.6972 0V3.93747H47.5458Z" fill="#15181B"/>
<path d="M22.7783 39.3959V35.4584H35.2326V39.3959H22.7783ZM35.2326 35.4584V31.5209H39.4063V35.4584H35.2326ZM18.6269 35.4584L18.6269 19.7085H22.7783L22.7783 35.4584H18.6269ZM35.2326 23.646V19.7085H39.4063V23.646H35.2326ZM22.7783 19.7085V15.7499H35.2326V19.7085L22.7783 19.7085Z" fill="currentColor"/>
<path d="M45.3674 43.3333V39.3959H49.5188V43.3333H45.3674ZM49.5188 39.3959V23.646H53.6702V39.3959H49.5188ZM53.6702 23.646V19.7085H57.8216V23.646H53.6702ZM49.5188 19.7085V3.93747H53.6702V19.7085H49.5188ZM45.3674 3.93747V0L49.5188 0V3.93747L45.3674 3.93747Z" fill="#15181B"/>
<path d="M8.30283 43.3333V39.3959H12.4542V43.3333H8.30283ZM4.15141 39.3959L4.15141 23.646H8.30283V39.3959H4.15141ZM0 23.646L0 19.7085H4.15141L4.15141 23.646H0ZM4.15141 19.7085L4.15141 3.93747H8.30283L8.30283 19.7085H4.15141ZM8.30283 3.93747V0L12.4542 0V3.93747L8.30283 3.93747Z" fill="#15181B"/>
</svg>
