<svg width="44" height="44" viewBox="0 0 44 44" fill="none" xmlns="http://www.w3.org/2000/svg">
<path fill-rule="evenodd" clip-rule="evenodd" d="M22.0003 3.66663C11.8792 3.66663 3.66699 11.8789 3.66699 22C3.66699 32.1211 11.8792 40.3333 22.0003 40.3333C32.1016 40.3333 40.3337 32.1211 40.3337 22C40.3337 11.8789 32.1016 3.66663 22.0003 3.66663ZM34.1099 12.1174C36.2971 14.7819 37.6095 18.1822 37.6493 21.8608C37.1323 21.7613 31.9624 20.7075 26.7527 21.3636C26.6334 21.1052 26.5339 20.8268 26.4147 20.5484C26.0965 19.7928 25.7386 19.0173 25.3807 18.2816C31.1471 15.9353 33.7718 12.5549 34.1099 12.1174ZM22.0003 6.37089C25.9772 6.37089 29.616 7.86221 32.3799 10.308C32.1015 10.7057 29.7353 13.8673 24.1677 15.9551C21.6026 11.2425 18.7592 7.38499 18.3217 6.78846C19.4949 6.51008 20.7277 6.37089 22.0003 6.37089ZM15.3391 7.84234C15.7567 8.39908 18.5405 12.2765 21.1453 16.8897C13.8279 18.8383 7.36549 18.7986 6.66952 18.7986C7.68361 13.9468 10.9645 9.9103 15.3391 7.84234ZM6.33149 22.0198C6.33149 21.8608 6.33149 21.7017 6.33149 21.5426C7.00756 21.5625 14.6034 21.6619 22.4179 19.3156C22.8752 20.1905 23.2928 21.0853 23.6905 21.9801C23.4916 22.0397 23.2729 22.0994 23.0741 22.159C15.0011 24.7639 10.706 31.8825 10.3481 32.479C7.86258 29.7151 6.33149 26.0365 6.33149 22.0198ZM22.0003 37.6688C18.3814 37.6688 15.0408 36.436 12.3962 34.368C12.6746 33.7914 15.8561 27.667 24.6847 24.5849C24.7245 24.565 24.7443 24.565 24.7841 24.5451C26.9913 30.2519 27.8861 35.0441 28.1247 36.4161C26.2357 37.2313 24.1677 37.6688 22.0003 37.6688ZM30.7296 34.9844C30.5705 34.03 29.7353 29.4566 27.6873 23.8293C32.5987 23.0538 36.8937 24.3264 37.4305 24.5054C36.7545 28.86 34.249 32.6182 30.7296 34.9844Z" fill="#323538"/>
</svg>
