<svg width="24" height="25" viewBox="0 0 24 25" fill="none" xmlns="http://www.w3.org/2000/svg">
<path d="M14 7.5H10V8.5H9V12.5H10V13.5H14V12.5H15V8.5H14V7.5ZM13 11.5H11V9.5H13V11.5Z" fill="#15181B"/>
<path d="M19 4.5V3.5H18V2.5H6V3.5H5V4.5H4V15.5H5V16.5H6V17.5H7V18.5H8V19.5H9V20.5H10V21.5H11V22.5H13V21.5H14V20.5H15V19.5H16V18.5H17V17.5H18V16.5H19V15.5H20V4.5H19ZM18 14.5H17V15.5H16V16.5H15V17.5H14V18.5H13V19.5H11V18.5H10V17.5H9V16.5H8V15.5H7V14.5H6V6.5H7V5.5H8V4.5H16V5.5H17V6.5H18V14.5Z" fill="#15181B"/>
</svg>
