<svg width="25" height="23" viewBox="0 0 23 23" fill="none" xmlns="http://www.w3.org/2000/svg">
<path fill-rule="evenodd" clip-rule="evenodd" d="M11.4075 0.510254C5.23434 0.510254 0.234375 5.51022 0.234375 11.6834C0.234375 16.6275 3.43268 20.8034 7.87398 22.2838C8.43264 22.3816 8.64214 22.0464 8.64214 21.7531C8.64214 21.4878 8.62817 20.6079 8.62817 19.6721C5.82093 20.1889 5.09467 18.9878 4.87121 18.3593C4.74552 18.0381 4.20083 17.0464 3.72597 16.7811C3.33491 16.5716 2.77626 16.0548 3.712 16.0409C4.59189 16.0269 5.22037 16.8509 5.42987 17.1861C6.43545 18.876 8.04158 18.4012 8.68403 18.1079C8.7818 17.3816 9.07509 16.8928 9.39632 16.6135C6.9103 16.3342 4.31256 15.3705 4.31256 11.0968C4.31256 9.8817 4.74552 8.87612 5.4578 8.094C5.34607 7.81467 4.95501 6.66943 5.56953 5.13313C5.56953 5.13313 6.50528 4.83983 8.64214 6.27837C9.53598 6.02697 10.4857 5.90128 11.4354 5.90128C12.3851 5.90128 13.3348 6.02697 14.2287 6.27837C16.3655 4.82587 17.3013 5.13313 17.3013 5.13313C17.9158 6.66943 17.5248 7.81467 17.413 8.094C18.1253 8.87612 18.5583 9.86773 18.5583 11.0968C18.5583 15.3845 15.9466 16.3342 13.4605 16.6135C13.8656 16.9627 14.2147 17.633 14.2147 18.6805C14.2147 20.1749 14.2008 21.376 14.2008 21.7531C14.2008 22.0464 14.4103 22.3956 14.9689 22.2838C17.187 21.535 19.1144 20.1095 20.4798 18.2079C21.8453 16.3063 22.58 14.0244 22.5806 11.6834C22.5806 5.51022 17.5806 0.510254 11.4075 0.510254Z" fill="#323538"/>
</svg>
