<svg width="24" height="25" viewBox="0 0 24 25" fill="none" xmlns="http://www.w3.org/2000/svg">
<path d="M14 9.5H10V10.5H9V14.5H10V15.5H14V14.5H15V10.5H14V9.5ZM13 13.5H11V11.5H13V13.5Z" fill="#15181B"/>
<path d="M9 19.5V17.5H7V16.5H6V15.5H5V13.5H3V11.5H5V9.5H1V15.5H3V17.5H4V18.5H5V19.5H7V21.5H15V19.5H9Z" fill="#15181B"/>
<path d="M21 9.5V7.5H20V6.5H19V5.5H17V3.5H9V5.5H15V7.5H17V8.5H18V9.5H19V11.5H21V13.5H19V15.5H23V9.5H21Z" fill="#15181B"/>
<path d="M21 20.5V18.5H19V16.5H17V14.5H15V12.5H13V10.5H11V8.5H9V6.5H7V4.5H5V2.5H3V1.5H1V4.5H3V6.5H5V8.5H7V10.5H9V12.5H11V14.5H13V16.5H15V18.5H17V20.5H19V22.5H21V23.5H23V20.5H21Z" fill="#15181B"/>
</svg>
