<svg width="15" height="15" viewBox="0 0 15 15" fill="none" xmlns="http://www.w3.org/2000/svg">
<path d="M14.9274 6.83547V7.50032H12.9329V14.1488H12.268V14.8136H9.60862V10.1597H5.61955V14.8136H2.96016V14.1488H2.29532V7.50032H0.300781V6.83547H0.965627V6.17062H1.63047V5.50578H2.29532V4.84093H2.96016V4.17609H3.62501V3.51124H4.28986V2.8464H4.9547V2.18155H5.61955V1.5167H6.28439V0.851858H6.94924V0.187012H8.27893V0.851858H8.94378V1.5167H9.60862V2.18155H10.2735V2.8464H10.9383V3.51124H11.6032V4.17609H12.268V4.84093H12.9329V5.50578H13.5977V6.17062H14.2625V6.83547H14.9274Z" fill="currentColor"/>
</svg>
