<svg width="24" height="25" viewBox="0 0 24 25" fill="none" xmlns="http://www.w3.org/2000/svg">
<path d="M11 6.5H7V7.5H6V11.5H7V12.5H11V11.5H12V7.5H11V6.5ZM10 10.5H8V8.5H10V10.5Z" fill="currentColor"/>
<path d="M21 3.5V2.5H3V3.5H2V21.5H3V22.5H21V21.5H22V3.5H21ZM20 14.5H19V13.5H18V12.5H17V11.5H14V12.5H13V13.5H12V14.5H11V15.5H10V16.5H9V17.5H8V18.5H7V19.5H6V20.5H5V19.5H4V5.5H5V4.5H19V5.5H20V14.5ZM20 19.5H19V20.5H9V19.5H10V18.5H11V17.5H12V16.5H13V15.5H14V14.5H15V13.5H16V14.5H17V15.5H18V16.5H19V17.5H20V19.5Z" fill="currentColor"/>
</svg>
