<svg width="44" height="44" viewBox="0 0 44 44" fill="none" xmlns="http://www.w3.org/2000/svg">
<path d="M38.5 7.92647V36.0735C38.5 36.7171 38.2444 37.3343 37.7893 37.7893C37.3343 38.2444 36.7171 38.5 36.0735 38.5H7.92647C7.28293 38.5 6.66575 38.2444 6.2107 37.7893C5.75565 37.3343 5.5 36.7171 5.5 36.0735V7.92647C5.5 7.28293 5.75565 6.66575 6.2107 6.2107C6.66575 5.75565 7.28293 5.5 7.92647 5.5H36.0735C36.7171 5.5 37.3343 5.75565 37.7893 6.2107C38.2444 6.66575 38.5 7.28293 38.5 7.92647ZM15.2059 18.1176H10.3529V33.6471H15.2059V18.1176ZM15.6426 12.7794C15.6452 12.4123 15.5754 12.0483 15.4373 11.7082C15.2992 11.3681 15.0954 11.0585 14.8377 10.7971C14.5799 10.5358 14.2732 10.3277 13.935 10.1849C13.5968 10.0421 13.2339 9.96725 12.8668 9.96471H12.7794C12.0329 9.96471 11.317 10.2613 10.7891 10.7891C10.2613 11.317 9.96471 12.0329 9.96471 12.7794C9.96471 13.5259 10.2613 14.2418 10.7891 14.7697C11.317 15.2976 12.0329 15.5941 12.7794 15.5941C13.1465 15.6031 13.5118 15.5398 13.8544 15.4076C14.197 15.2754 14.5102 15.077 14.7761 14.8237C15.042 14.5704 15.2554 14.2672 15.4041 13.9314C15.5528 13.5957 15.6338 13.2339 15.6426 12.8668V12.7794ZM33.6471 24.2129C33.6471 19.5444 30.6771 17.7294 27.7265 17.7294C26.7604 17.681 25.7985 17.8868 24.9368 18.3262C24.075 18.7656 23.3435 19.4232 22.8153 20.2335H22.6794V18.1176H18.1176V33.6471H22.9706V25.3874C22.9004 24.5414 23.1669 23.702 23.7121 23.0514C24.2573 22.4008 25.0372 21.9916 25.8824 21.9126H26.0668C27.61 21.9126 28.7553 22.8832 28.7553 25.3291V33.6471H33.6082L33.6471 24.2129Z" fill="#323538"/>
</svg>
