<svg width="24" height="25" viewBox="0 0 24 25" fill="none" xmlns="http://www.w3.org/2000/svg">
<path d="M13 4.5V5.5H14V9.5H15V10.5H16V3.5H15V2.5H9V3.5V4.5H13Z" fill="currentColor"/>
<path d="M13 20.5V18.5H12V17.5H8V16.5H7V14.5H5V18.5H6V19.5H11V20.5H9V22.5H15V20.5H13Z" fill="currentColor"/>
<path d="M21 20.5V18.5H19V16.5H17V14.5H15V12.5H13V10.5H11V8.5H9V6.5H7V4.5H5V2.5H3V1.5H1V4.5H3V6.5H4H5V8.5H7V10.5H9V12.5H11V14.5H13V16.5H15V18.5H17V20.5H19V22.5H21V23.5H23V20.5H21Z" fill="currentColor"/>
</svg>
