<svg width="24" height="25" viewBox="0 0 24 25" fill="none" xmlns="http://www.w3.org/2000/svg">
<path d="M14 6.5V7.5H15V8.5H16V9.5H17V13.5H18H19V7.5H18V6.5H17V5.5H16V4.5H13V2.5H11V6.5H14Z" fill="currentColor"/>
<path d="M13 19.5V17.5H6V16.5H7V12.5H5V15.5H4V17.5H3V19.5H13Z" fill="currentColor"/>
<path d="M14 20.5H10V22.5H14V20.5Z" fill="currentColor"/>
<path d="M21 20.5V18.5H19V16.5H17V14.5H15V12.5H13V10.5H11V8.5H9V6.5H7V4.5H5V2.5H3V1.5H1V4.5H3V6.5H5V8.5H7V10.5H9V12.5H11V14.5H13V16.5H15V18.5H17V20.5H19V22.5H21V23.5H23V20.5H21Z" fill="currentColor"/>
</svg>
