<svg width="44" height="44" viewBox="0 0 44 44" fill="none" xmlns="http://www.w3.org/2000/svg">
<rect width="44" height="44" rx="22" transform="matrix(0 1 1 0 0 0)" fill="currentColor"/>
<path d="M32 21.0909V22.9091H31.0909V23.8182H30.1818V24.7273H29.2727V25.6364H28.3636V26.5455H27.4545V27.4545H26.5455V28.3636H25.6364V29.2727H24.7273V30.1818H23.8182V31.0909H22.9091V32H22V31.0909H21.0909V30.1818H20.1818V29.2727H21.0909V28.3636H22V27.4545H22.9091V26.5455H23.8182V25.6364H24.7273V24.7273H25.6364V23.8182H12V20.1818H25.6364V19.2727H24.7273V18.3636H23.8182V17.4545H22.9091V16.5455H22V15.6364H21.0909V14.7273H20.1818V13.8182H21.0909V12.9091H22V12H22.9091V12.9091H23.8182V13.8182H24.7273V14.7273H25.6364V15.6364H26.5455V16.5455H27.4545V17.4545H28.3636V18.3636H29.2727V19.2727H30.1818V20.1818H31.0909V21.0909H32Z" fill="#FAFCFE"/>
</svg>
