<svg width="20" height="20" viewBox="0 0 20 20" fill="none" xmlns="http://www.w3.org/2000/svg">
<path d="M20 17.2727V19.0909H19.0909V20H17.2727V19.0909H16.3636V18.1818H15.4545V17.2727H14.5455V16.3636H13.6364V15.4545H14.5455V14.5455H15.4545V13.6364H16.3636V14.5455H17.2727V15.4545H18.1818V16.3636H19.0909V17.2727H20Z" fill="currentColor"/>
<path fill-rule="evenodd" clip-rule="evenodd" d="M12.7273 14.5455H13.6364V13.6364H14.5455V12.7273H15.4545V10.9091H16.3636V5.45455H15.4545V3.63636H14.5455V2.72727H13.6364V1.81818H12.7273V0.909091H10.9091V0H5.45455V0.909091H3.63636V1.81818H2.72727V2.72727H1.81818V3.63636H0.909091V5.45455H0V10.9091H0.909091V12.7273H1.81818V13.6364H2.72727V14.5455H3.63636V15.4545H5.45455V16.3636H10.9091V15.4545H12.7273V14.5455ZM8.18182 12.7273C10.6922 12.7273 12.7273 10.6922 12.7273 8.18182C12.7273 5.67143 10.6922 3.63636 8.18182 3.63636C5.67143 3.63636 3.63636 5.67143 3.63636 8.18182C3.63636 10.6922 5.67143 12.7273 8.18182 12.7273Z" fill="currentColor"/>
</svg>
