<svg width="149" height="25" viewBox="0 0 149 25" fill="none" xmlns="http://www.w3.org/2000/svg">
<path d="M5.59472 24.8333V22.5769H7.83261V24.8333H5.59472ZM3.35683 22.5769L3.35683 13.551H5.59472L5.59472 22.5769H3.35683ZM1.11894 13.551L1.11894 11.2945H3.35683V13.551H1.11894ZM3.35683 11.2945L3.35683 2.25647L5.59472 2.25647L5.59472 11.2945H3.35683ZM5.59472 2.25647V0L7.83261 0V2.25647H5.59472Z" fill="#15181B"/>
<path d="M12.3084 22.5769V20.3204H19.022V22.5769H12.3084ZM19.022 20.3204V18.0639H21.272V20.3204H19.022ZM10.0705 20.3204L10.0705 11.2945H12.3084L12.3084 20.3204H10.0705ZM19.022 13.551V11.2945H21.272V13.551H19.022ZM12.3084 11.2945V9.02589L19.022 9.02589V11.2945L12.3084 11.2945Z" fill="#2DBA4F"/>
<path d="M25.7598 22.5769V20.3204L32.4734 20.3204V22.5769L25.7598 22.5769ZM23.5219 20.3204V11.2945H25.7598V20.3204H23.5219ZM32.4734 20.3204V11.2945H34.7234V20.3204H32.4734ZM25.7598 11.2945V9.02589H32.4734V11.2945H25.7598Z" fill="#2DBA4F"/>
<path d="M36.9733 20.3204V11.2945H39.2112V20.3204H36.9733ZM39.2112 22.5769V20.3204H45.9248V11.2945L39.2112 11.2945V9.02589L45.9248 9.02589V2.25647L48.1747 2.25647V22.5769H39.2112Z" fill="#2DBA4F"/>
<path d="M52.6625 22.5769V20.3204H59.3762V22.5769H52.6625ZM59.3762 20.3204V18.0639H61.6261V20.3204H59.3762ZM50.4247 20.3204V11.2945H52.6625V13.551H59.3762V11.2945H61.6261V15.8074H52.6625V20.3204H50.4247ZM52.6625 11.2945V9.02589H59.3762V11.2945H52.6625Z" fill="#2DBA4F"/>
<path d="M63.876 24.8333V22.5769H66.1139V24.8333H63.876ZM66.1139 22.5769V13.551H68.3518V22.5769H66.1139ZM68.3518 13.551V11.2945H70.5897V13.551H68.3518ZM66.1139 11.2945V2.25647H68.3518V11.2945H66.1139ZM63.876 2.25647V0L66.1139 0V2.25647H63.876Z" fill="#15181B"/>
<path d="M81.7791 22.5769V20.3204H84.017V22.5769H81.7791ZM79.5413 20.3204V4.51295L81.7791 4.51295V9.02589H84.017V11.2945H81.7791V20.3204H79.5413Z" fill="#15181B"/>
<path d="M86.2549 22.5769V9.02589H90.7307V11.2945H88.4928V22.5769L86.2549 22.5769Z" fill="#15181B"/>
<path d="M95.2065 22.5769V20.3204H101.92V22.5769H95.2065ZM92.9686 20.3204V11.2945H95.2065V20.3204H92.9686ZM101.92 20.3204V11.2945H104.17V20.3204H101.92ZM95.2065 11.2945V9.02589L101.92 9.02589V11.2945L95.2065 11.2945Z" fill="#15181B"/>
<path d="M108.658 22.5769V20.3204H113.134V22.5769H108.658ZM106.42 20.3204V9.02589H108.658V20.3204H106.42ZM115.372 22.5769V20.3204H113.134V18.0639H115.372V9.02589H117.621V22.5769H115.372Z" fill="#15181B"/>
<path d="M128.823 20.3204V11.2945L131.073 11.2945V20.3204H128.823ZM119.871 22.5769V2.25647H122.109V9.02589H128.823V11.2945H122.109V20.3204H128.823V22.5769H119.871Z" fill="#15181B"/>
<path d="M133.323 22.5769V2.25647L135.561 2.25647V22.5769H133.323Z" fill="#15181B"/>
<path d="M140.036 22.5769V20.3204L146.75 20.3204V22.5769L140.036 22.5769ZM146.75 20.3204V18.0639H149V20.3204H146.75ZM137.799 20.3204V11.2945H140.036V13.551H146.75V11.2945H149V15.8074H140.036V20.3204H137.799ZM140.036 11.2945V9.02589H146.75V11.2945H140.036Z" fill="#15181B"/>
<path d="M11.1601 22.5769V20.3204H17.8737V22.5769H11.1601ZM17.8737 20.3204V18.0639H20.1237V20.3204H17.8737ZM8.92219 20.3204L8.92219 11.2945H11.1601L11.1601 20.3204H8.92219ZM17.8737 13.551V11.2945H20.1237V13.551H17.8737ZM11.1601 11.2945V9.02589L17.8737 9.02589V11.2945L11.1601 11.2945Z" fill="#2DBA4F"/>
<path d="M24.5994 22.5769V20.3204L31.3131 20.3204V22.5769L24.5994 22.5769ZM22.3615 20.3204V11.2945H24.5994V20.3204H22.3615ZM31.3131 20.3204V11.2945H33.563V20.3204H31.3131ZM24.5994 11.2945V9.02589H31.3131V11.2945H24.5994Z" fill="#2DBA4F"/>
<path d="M35.8423 20.3204V11.2945H38.0802V20.3204H35.8423ZM38.0802 22.5769V20.3204H44.7938V11.2945L38.0802 11.2945V9.02589L44.7938 9.02589V2.25647H47.0438V22.5769H38.0802Z" fill="#2DBA4F"/>
<path d="M51.5195 22.5769V20.3204H58.2332V22.5769H51.5195ZM58.2332 20.3204V18.0639H60.4831V20.3204H58.2332ZM49.2817 20.3204V11.2945H51.5195V13.551H58.2332V11.2945H60.4831V15.8074H51.5195V20.3204H49.2817ZM51.5195 11.2945V9.02589H58.2332V11.2945H51.5195Z" fill="#2DBA4F"/>
<path d="M62.7018 24.8333V22.5769H64.9396V24.8333H62.7018ZM64.9396 22.5769V13.551H67.1775V22.5769H64.9396ZM67.1775 13.551V11.2945H69.4154V13.551H67.1775ZM64.9396 11.2945V2.25647H67.1775V11.2945H64.9396ZM62.7018 2.25647V0L64.9396 0V2.25647H62.7018Z" fill="#15181B"/>
<path d="M4.47578 24.8333V22.5769H6.71366V24.8333H4.47578ZM2.23789 22.5769L2.23789 13.551H4.47578L4.47578 22.5769H2.23789ZM0 13.551L0 11.2945H2.23789V13.551H0ZM2.23789 11.2945L2.23789 2.25647L4.47578 2.25647L4.47578 11.2945H2.23789ZM4.47578 2.25647V0L6.71366 0V2.25647H4.47578Z" fill="#15181B"/>
</svg>