<svg width="25" height="25" viewBox="0 0 25 25" fill="none" xmlns="http://www.w3.org/2000/svg">
<path d="M15.3578 10.5H9.35785V12.5H15.3578V10.5Z" fill="currentColor"/>
<path d="M19.3578 6.5V5.5H18.3578V4.5H17.3578V3.5H7.35785V4.5H6.35785V5.5H5.35785V6.5H4.35785V16.5H5.35785V17.5H6.35785V18.5H7.35785V19.5H15.3578V21.5H16.3578V22.5H19.3578V20.5H18.3578V19.5H17.3578V18.5H18.3578V17.5H19.3578V16.5H20.3578V6.5H19.3578ZM18.3578 14.5H17.3578V15.5H16.3578V16.5H15.3578V17.5H9.35785V16.5H8.35785V15.5H7.35785V14.5H6.35785V8.5H7.35785V7.5H8.35785V6.5H9.35785V5.5H15.3578V6.5H16.3578V7.5H17.3578V8.5H18.3578V14.5Z" fill="currentColor"/>
</svg>
